<svg id="_x33_0" enable-background="new 0 0 64 64" height="512" viewBox="0 0 64 64" width="512" xmlns="http://www.w3.org/2000/svg"><g><path d="m48.074 31h-12.148c-1.039 0-1.915.811-1.994 1.847l-.932 12.153c0 1.103.897 2 2 2h14c1.103 0 2-.897 1.997-2.077l-.929-12.077c-.08-1.035-.956-1.846-1.994-1.846zm-13.077 14.077.929-12.077h5.074v12.044zm8.003-.044v-12.033h5.074l.928 12z"/><path d="m58 39h-3.08l-.542-6.498c-.211-2.531-2.027-4.589-4.378-5.255v-4.247h-2v4h-5.634l-25.366-21.464v-2.036c0-1.378-1.122-2.5-2.5-2.5-.537 0-1.069.177-1.5.5l-2.801 2.1c-.751.564-1.199 1.461-1.199 2.4v.586l-5.121 5.121c-.567.566-.879 1.32-.879 2.122v2.757c0 1.189.866 2.174 2 2.372v10.042c-1.103 0-2 .897-2 2v2c0 .45.155.861.407 1.196-1.55 1.637-2.407 3.763-2.407 6.026 0 4.84 3.938 8.778 8.778 8.778h3.744l-.446 1.114c-.457 1.146-1.55 1.886-2.784 1.886-1.792 0-3.41.992-4.223 2.589l-.655 1.287c-.11.216-.297.376-.528.452l-.436.144c-1.371.45-2.527 1.449-3.173 2.739-.181.362-.277.767-.277 1.171 0 1.444 1.174 2.618 2.618 2.618h45.382 2 1c3.86 0 7-3.14 7-7 0-1.958-.81-3.728-2.11-5h3.11c1.654 0 3-1.346 3-3v-4c0-2.757-2.243-5-5-5zm2.816 4h-1.816v-1.816c.847.302 1.514.969 1.816 1.816zm-5.816-2h2v2h-2zm-15.73-14h-3.492c-2.185 0-4.099 1.164-5.148 2.917l-13.63-17.264v-4.497zm-11.831 23.699-3.286-1.315c-.341-.137-.638-.364-.858-.657l-1.595-2.127c-.751-1.002-1.948-1.6-3.2-1.6h-1.5v-1.618l-2-1v-7.382c1.103 0 2-.897 2-2v-17.12l12.839 16.263c-.027.192-.046.388-.055.586l-.755 16.934c-.578.271-1.111.623-1.59 1.036zm-16.439-15.699h2v8.618l2 1v2.382h-4zm-6-21.171c0-.267.104-.519.293-.708l3.707-3.707v4.172l-3.293 3.293c-.238.238-.707.045-.707-.293zm2 4.564c.039-.035.084-.062.121-.1l1.879-1.879v12.586h-2zm-2 12.607h6v-25c0-.313.149-.612.4-.8l2.799-2.099c.311-.233.801.015.801.399l.001 29.5h-10.001zm-2 9.222c0-1.811.705-3.513 1.985-4.793l.429-.429h3.586v11.952c-3.372-.388-6-3.256-6-6.73zm.618 20.778c-.341 0-.618-.277-.618-.618 0-.095.022-.191.065-.276.408-.817 1.141-1.449 2.009-1.734l.437-.144c.735-.241 1.334-.754 1.686-1.445l.655-1.287c.469-.923 1.404-1.496 2.44-1.496 2.057 0 3.879-1.234 4.643-3.143l.8-2.001c.739-.294 1.265-1.013 1.265-1.856h1.5c.626 0 1.224.299 1.6.8l1.595 2.127c.44.587 1.033 1.041 1.714 1.313l2.657 1.063c-.671 1.075-1.066 2.339-1.066 3.697 0 1.958.81 3.728 2.11 5zm37.382-4v4h-2v-4zm4 0v4h-2v-4zm2 4v-4h2v4zm4 0v-4h2v3.899c-.323.066-.658.101-1 .101zm6-5c0 1.627-.793 3.061-2 3.974v-2.974c0-1.103-.897-2-2-2h-18.184c-.414-1.161-1.514-2-2.816-2-1.654 0-3 1.346-3 3s1.346 3 3 3c1.302 0 2.402-.839 2.816-2h2.184v4h-5c-2.757 0-5-2.243-5-5s2.243-5 5-5h20c2.757 0 5 2.243 5 5zm-24 0c0 .551-.449 1-1 1s-1-.449-1-1 .449-1 1-1 1 .449 1 1zm27-7h-28c-.319 0-.634.021-.942.063l.724-16.245c.097-2.141 1.852-3.818 3.996-3.818h12.622c2.064 0 3.814 1.611 3.986 3.668l.614 7.372v2.96c0 1.103.897 2 2 2h6v3c0 .551-.449 1-1 1z"/><path d="m19 51h2v2h-2z"/><path d="m21 57h2v2h-2z"/><path d="m15 55h2v2h-2z"/><path d="m11 57h2v2h-2z"/></g></svg>