<svg id="Capa_1" enable-background="new 0 0 512 512" height="512" viewBox="0 0 512 512" width="512" xmlns="http://www.w3.org/2000/svg"><g><g><path d="m60.696 158.5h30v30h-30z"/><path d="m60.696 218.5h30v30h-30z"/><path d="m60.696 278.5h30v30h-30z"/></g><g><g><path d="m180.696 79.75h30v63.75h-30z"/><path d="m240.696 79.75h30v63.75h-30z"/><path d="m300.696 79.75h30v63.75h-30z"/><path d="m180.696 173.5h30v63.75h-30z"/><path d="m240.696 173.5h30v63.75h-30z"/><path d="m300.696 173.5h30v63.75h-30z"/><path d="m180.696 267.25h30v63.75h-30z"/><path d="m240.696 267.25h30v63.75h-30z"/><path d="m300.696 267.25h30v63.75h-30z"/></g><g><path d="m420.696 218.5h30v30h-30z"/><path d="m420.696 278.5h30v30h-30z"/><path d="m420.696 338.5h30v30h-30z"/></g><path d="m390.696 64.75v-41.25h-270v41.079l-120.685-35.483-.011 459.404h512v-423.75zm-270 393.75h-90.887v-389.322l90.888 26.666v362.656zm180 0h-30v-67.5h30zm-60 0h-30v-67.5h30zm120 0h-30v-97.5h-150v97.5h-30v-405h210zm121.495 0h-91.495v-296.25h91.495zm-91.495-326.25v-37.5h91.495v37.5z"/></g></g></svg>