<svg id="Layer_1" data-name="Layer 1" xmlns="http://www.w3.org/2000/svg" viewBox="0 0 60 69.9"><defs><style>.cls-1{fill:#fba500;}.cls-2{fill:#1f272f;}</style></defs><path class="cls-1" d="M25,49V84.1l8.1-.3,8.1-.3L41,64.2c0-10.5.2-19.2.5-19.2a11,11,0,0,1,3,1.6L47,48.2V36.4l-.1-11.9L36.7,19.6c-5.6-2.8-10.5-5.2-10.9-5.4S25,29.6,25,49Zm5.5-29.7A35.29,35.29,0,0,0,36,22a20.63,20.63,0,0,1,4.7,2.6,7.69,7.69,0,0,0,2.4,1.6c.8.3,1.3,3.4,1.5,8.6.2,7.8-.1,8.7-2.8,8.3-.4,0-1,.8-1.3,1.9s-1.1,2-1.6,2-.7.5-.3,1.2c1,1.5.8,10.3-.2,11.9-.4.8-.3.9.4.5,1.5-.9,1.6,5.2.3,7.4a2.19,2.19,0,0,0-.3,2.4c1,1.7,1.1,5.6.1,5.6-1.4,0-1.1,2.8.4,3.3.7.3.2.9-1.3,1.5-2.2.8-2.5.7-2.8-1.2-.6-4.3-2.5-7.6-4.3-7.6-1.6,0-1.9-.8-1.9-6,0-4.9.3-6.1,2-7,1.9-1,2-.8,2,5.9,0,3.8.5,7.3,1,7.6s1-2,1-6.4c0-3.8-.4-7.3-1-7.6-1.4-.9-1.2-2.5.3-2.5.8,0,1.2-1.4,1.1-4-.1-2.2-.2-5.4-.3-7s-.5-3-1.1-3-1,3-1,7c0,6.3-.2,7-2,7s-2-.7-2-6.5c0-4.1.4-6.5,1.1-6.5s2-1.2,3.2-2.6c1.6-2.1,2-3.9,1.8-8.3-.4-8.8-2.1-8.7-2.1.1,0,7.1-.1,7.6-2,7.1-1.7-.5-2-1.4-2-6.4,0-4.6.3-5.9,1.5-5.9.8,0,1.5-.5,1.5-1.1s-1-.9-2.1-.7c-1.9.3-2.2-.2-2.3-3.5C27.5,17.6,27.7,17.4,30.5,19.3ZM28.2,42.5c-.2,1.4-.6,2.5-.8,2.5s-.4-1.1-.4-2.5.4-2.5.9-2.5S28.5,41.1,28.2,42.5Zm.3,14.4a1.22,1.22,0,0,1-.5,1.6c-.5.3-1-.1-1-.9C27,55.8,27.6,55.5,28.5,56.9Zm-.8,17.3c-.3.8-.6.5-.6-.6s.2-1.7.5-1.3A2,2,0,0,1,27.7,74.2ZM33,78.6c0,2.8-.3,3.5-1.7,3.2-2.5-.5-3-5.5-.6-6.1,1-.3,1.9-.5,2.1-.6A15.73,15.73,0,0,1,33,78.6Z" transform="translate(-7 -14.2)"/><path class="cls-1" d="M18.3,47.4l-3.2,1-.3,17.8L14.5,84h8l-.2-18.6c-.1-10.3-.3-18.7-.5-18.8A16.51,16.51,0,0,0,18.3,47.4Zm.5,33.7c-1,.7-1.4-2-1.8-12.4-.3-7.7-.1-13.5.4-13.9s.5-1.3-.3-2.1c-1-1.3-.9-1.6.6-1.9,1.7-.3,1.8.8,2.1,14.6C20,76.7,19.7,80.5,18.8,81.1Z" transform="translate(-7 -14.2)"/><path class="cls-2" d="M44,66.5V84H54V71.6c0-8.1.4-12.7,1.1-13.2s.9,0,.5,1.4S55.5,62.2,57,63c2,1.1,2.1.9,1.8-3.1-.3-4.3-.3-4.3-7.5-7.6L44,49.1Zm5.3-12c.8.8,1.7,1.1,2.1.8s.6-.1.6.6.5.9,1,.6c1.3-.8,1.3.1-.5,5.9a47.13,47.13,0,0,0-1.5,11c0,6.7-.9,8.9-2.8,7.7-1-.6-1.2-4.1-1-13.9.2-8.2-.1-13.4-.7-13.6s-.5-.5.2-.5A4.21,4.21,0,0,1,49.3,54.5Z" transform="translate(-7 -14.2)"/><path class="cls-2" d="M56,74.4V84H67V68.2l-4.2-1.1c-2.4-.7-4.9-1.5-5.5-1.7C56.3,65,56,67.1,56,74.4ZM64.2,76c.2,4.3,0,5.6-.9,4.9-.7-.7-1.3-.5-1.6.3S61,80,60.9,77l-.2-5.5L60,77l-.7,5.5-.1-6.6c-.2-6.5-.2-6.6,2.2-6.2C63.6,70.2,63.9,70.8,64.2,76Z" transform="translate(-7 -14.2)"/><path class="cls-1" d="M8.8,71.1C7.4,71.9,7,73.4,7,78c0,5.7.1,6,2.5,6s2.5-.2,2.5-7C12,69.8,11.7,69.3,8.8,71.1Zm.9,8.1c-.2,1.3-.4.5-.4-1.7s.1-3.2.4-2.3A13.39,13.39,0,0,1,9.7,79.2Z" transform="translate(-7 -14.2)"/></svg>